{
  "accessors": [
    {
      "bufferView": 0,
      "componentType": 5126,
      "count": 6434,
      "max": [
        0.14896205067634583,
        0.15556204319000244,
        0.08186837285757065
      ],
      "min": [
        -0.15625600516796112,
        -0.14063100516796112,
        0.0001258510019397363
      ],
      "type": "VEC3"
    },
    {
      "bufferView": 1,
      "componentType": 5125,
      "count": 11173,
      "type": "SCALAR"
    },
    {
      "bufferView": 2,
      "componentType": 5126,
      "count": 6434,
      "type": "VEC3"
    },
    {
      "bufferView": 3,
      "componentType": 5126,
      "count": 6434,
      "type": "VEC4"
    },
    {
      "bufferView": 4,
      "componentType": 5126,
      "count": 6434,
      "type": "VEC2"
    }
  ],
  "asset": {
    "version": "2.0"
  },
  "bufferViews": [
    {
      "buffer": 0,
      "byteLength": 77208,
      "target": 34962
    },
    {
      "buffer": 1,
      "byteLength": 44692,
      "target": 34963
    },
    {
      "buffer": 2,
      "byteLength": 77208,
      "target": 34962
    },
    {
      "buffer": 3,
      "byteLength": 102944,
      "target": 34962
    },
    {
      "buffer": 4,
      "byteLength": 51472,
      "target": 34962
    }
  ],
  "buffers": [
    {
      "byteLength": 77208,
      "uri": "data:application/octet-stream;base64,"
    },
    {
      "byteLength": 44692,
      "uri": "data:application/octet-stream;base64,"
    },
    {
      "byteLength": 77208,
      "uri": "data:application/octet-stream;base64,"
    },
    {
      "byteLength": 102944,
      "uri": "data:application/octet-stream;base64,"
    },
    {
      "byteLength": 51472,
      "uri": "data:application/octet-stream;base64,"
    }
  ],
  "materials": [
    {
      "doubleSided": true,
      "name": "XBox_mtl",
      "occlusionTexture" : {
      "index" : 0
      },
      "pbrMetallicRoughness": {
        "baseColorTexture" : {"index" : 2},
        "metallicFactor" : 0,
        "metallicRoughnessTexture" : { "index" : 4 },
        "baseColorFactor": [
          1.0,
          1.0,
          1.0,
          1.0
        ]
      }
    }
  ],
  "images": [
    {
         "uri" : "609fac2d8d6d4119852889eb7c9a4d55_R_XBox_occlusion.png"
    },
    {
         "uri" : "6bb89e65773b42e9a406956429a7079b_RGB_internal_ground_ao_texture.jpeg"
    },
    {
         "uri" : "9e25d4eca78645fea82fa4f148c2c114_RGB_XBox_color.png"
    },
    {
         "uri" : "b8d7a34fe4b3467bad6cea53a985c95f_R_XBox_metallic.png"
    },
    {
         "uri" : "e56dd20ab1cd4bf0b8e3118f846e2c07_R_XBox_roughness.png"
    }
  ],
  "textures": [
    {
         "source" : 0
    },
    {
         "source" : 1
    },
    {
         "source" : 2
    },
    {
         "source" : 3
    },
    {
         "source" : 4
    }
  ],
  "meshes": [
    {
      "name": "XBox_XBox_mtl_0",
      "primitives": [
        {
          "attributes": {
            "NORMAL": 2,
            "POSITION": 0,
            "TANGENT": 3,
            "TEXCOORD_0": 4
          },
          "indices": 1,
          "material": 0,
          "mode": 5
        }
      ]
    }
  ],
  "nodes": [
    {
      "mesh": 0,
      "name": "XBox_XBox_mtl_0"
    },
    {
      "children": [
        0
      ],
      "name": "XBox",
      "rotation": [
        -0.7071067811865475,
        0.0,
        0.0,
        0.7071067811865476
      ],
      "scale": [
        1.0,
        1.0,
        1.0
      ],
      "translation": [
        0.0,
        0.0,
        0.0
      ]
    },
    {
      "children": [
        1
      ],
      "name": "RootNode"
    },
    {
      "children": [
        2
      ],
      "name": "71637bc134e14bf29d5b9e0da4130da5.fbx",
      "rotation": [
        1.1102230246251565e-16,
        0.0,
        0.0,
        1.0
      ],
      "scale": [
        1.0,
        1.0,
        1.0
      ],
      "translation": [
        0.0,
        0.0,
        0.0
      ]
    }
  ],
  "scene": 0,
  "scenes": [
    {
      "nodes": [
        3
      ]
    }
  ]
}
